<?xml version="1.0" encoding="iso-8859-1"?>
<!-- Generator: Adobe Illustrator 19.0.0, SVG Export Plug-In . SVG Version: 6.00 Build 0)  -->
<svg version="1.1" id="Capa_1" xmlns="http://www.w3.org/2000/svg" xmlns:xlink="http://www.w3.org/1999/xlink" x="0px" y="0px"
	 viewBox="0 0 512 512" style="enable-background:new 0 0 512 512;" xml:space="preserve">
<path style="fill:#303C42;" d="M512,213.333c0-16.656-14.479-50.708-68.708-62.969c-2.896-3.646-5.875-7.479-8.979-11.448
	C391.125,83.604,325.854,0,213.333,0C92.211,0,65.279,65.26,64.115,163.836C28.352,175.513,0,194.802,0,224
	c0,37.135,37.807,50.195,64.488,52.796c2.121,32.044,14.188,50.189,31.368,68.493c-6.599,9.488-10.523,20.967-10.523,33.378
	c0,18.359,8.646,34.57,21.887,45.335C112.93,488.661,187.013,512,256,512c47.167,0,132.958-34.969,167.625-128.188
	c66.563-3.385,88.375-50.99,88.375-74.479c0-17.34-5.633-34.605-16.26-46.897C511.957,245.37,512,221.818,512,213.333z"/>
<path style="fill:#E53935;" d="M213.333,21.333c102.104,0,161.104,75.552,204.167,130.719c4,5.125,7.833,10.021,11.5,14.615
	c1.563,1.958,3.771,3.302,6.25,3.792c45.229,9.052,55.417,34.625,55.417,42.875c0,7.829-0.164,25.327-12.431,36.185
	c-5.842-2.513-12.254-4.185-19.569-4.185c-8.801,0-16.534,2.159-23.346,5.868c-95.46-81.266-170.975-97.97-230.148-101.145
	c12.473-12.341,19.194-28.311,18.786-45.214c-0.417-17.281-8.146-33.292-21.771-45.083c-13.354-11.542-30.292-17.604-49.104-17.208
	c-14.422,0.353-28.013,4.871-39.405,12.669C132.792,33.214,163.746,21.333,213.333,21.333z"/>
<path style="opacity:0.2;fill:#FFFFFF;enable-background:new    ;" d="M183.009,48.215c6.229-0.461,12.717-0.75,19.658-0.75
	c102.104,0,161.104,75.552,204.167,130.719c4,5.125,7.833,10.021,11.5,14.615c1.563,1.958,3.771,3.302,6.25,3.792
	C469.813,205.642,480,231.215,480,239.465c0,2.118-0.073,5.004-0.333,8.216c10.522-10.908,11-26.911,11-34.348
	c0-8.25-10.188-33.823-55.417-42.875c-2.479-0.49-4.688-1.833-6.25-3.792c-3.667-4.594-7.5-9.49-11.5-14.615
	C374.438,96.885,315.438,21.333,213.333,21.333c-49.587,0-80.542,11.88-99.655,33.888c11.392-7.798,24.983-12.316,39.405-12.669
	C163.81,42.327,173.818,44.422,183.009,48.215z"/>
<g>
	<path style="fill:#6D4C41;" d="M395.257,248.439c7.611,5.316,15.598,11.234,23.874,17.602c-6.762,9.785-11.307,22.65-13.005,38.522
		l-28.771-11.51C382.22,282.859,389.441,266.357,395.257,248.439z"/>
	<path style="fill:#6D4C41;" d="M411.143,282.182c2.145-6.036,4.772-11.491,7.987-16.142c-8.276-6.367-16.263-12.285-23.874-17.602
		c-2.517,7.757-5.294,15.124-8.034,21.953C394.329,273.997,403.336,278.112,411.143,282.182z"/>
</g>
<g>
	<path style="fill:#FFFFFF;" d="M155.688,149.188c-12.333,0.208-25.271-3.938-34.583-12c-1.676-1.448-3.07-3.073-4.47-4.691
		l20.22-26.954l8.271,16.563c3.625,7.229,15.458,7.229,19.083,0l8.271-16.563l20.027,26.697c-0.941,1.091-1.753,2.253-2.819,3.272
		C180.771,144.01,168.708,148.875,155.688,149.188z"/>
	<path style="fill:#FFFFFF;" d="M202.263,109.677l-23.055-30.74c-2.229-2.958-5.813-4.667-9.5-4.229
		c-3.688,0.333-6.938,2.552-8.583,5.854l-6.458,12.917l-6.458-12.917c-1.646-3.302-4.896-5.521-8.583-5.854
		c-3.667-0.438-7.271,1.271-9.5,4.229l-23.158,30.876c-0.056-0.71-0.263-1.389-0.28-2.105C106.417,96.5,111,85.802,119.625,77.563
		c8.917-8.5,20.979-13.365,34-13.677c0.438-0.01,0.896-0.021,1.354-0.021c12.479,0,24.25,4.24,33.229,12.021
		c9.042,7.813,14.146,18.281,14.417,29.479C202.66,106.823,202.391,108.24,202.263,109.677z"/>
</g>
<path style="fill:#303C42;" d="M87.829,123.18c3.262,11.422,9.727,21.852,19.296,30.133c0.122,0.105,0.27,0.176,0.392,0.28
	c-7.367,1.164-14.73,2.608-21.99,4.29C85.809,145.577,86.508,133.962,87.829,123.18z"/>
<path style="fill:#D32F2F;" d="M21.333,224c0-31.427,73.083-53.333,138.667-53.333h3.479c11.493-0.04,23.734-0.055,36.749,0.551
	c-59.24,4.77-124.77,40.688-134.788,84.122C50.173,253.609,21.333,247.271,21.333,224z"/>
<path style="opacity:0.1;enable-background:new    ;" d="M45.105,234.682c0-25.422,47.827-44.6,100.816-51.008
	c17.518-6.603,36.199-10.999,54.306-12.457c-13.014-0.605-25.255-0.591-36.749-0.551H160c-65.583,0-138.667,21.906-138.667,53.333
	c0,18.26,17.708,26.029,32.73,29.392C48.777,248.861,45.105,242.865,45.105,234.682z"/>
<path style="fill:#FFFFFF;" d="M106.667,320c0,2.477,0.635,4.772,1.414,6.986c-4.714-5.271-8.659-10.371-11.875-15.641
	c0.911-20.508,9.833-34.012,15.794-34.012c4.737,0,11.255,8.243,14.298,21.677C115.365,299.923,106.667,308.842,106.667,320z"/>
<path style="fill:#29B6F6;" d="M124.816,293.642c-1.798-0.987-3.909-1.961-5.515-1.961c-6.669,0-15.984,9.961-19.751,24.725
	c2.607,3.737,5.145,6.793,8.531,10.579c-0.779-2.214-1.414-4.509-1.414-6.986c0-11.158,8.698-20.077,19.632-20.99
	C125.809,296.85,125.463,295.521,124.816,293.642z"/>
<path style="fill:#FEE4D0;" d="M416,362.667c-4.583,0-8.667,2.938-10.125,7.292C376.563,457.896,298.396,490.667,256,490.667
	c-26.651,0-107.706-4.423-124.647-54.788c4.083,0.902,8.296,1.454,12.647,1.454c8.225,0,16.042-1.732,23.152-4.799
	C180.947,440.159,198.521,448,213.333,448c22.729,0,36.667-10.604,41.125-23.104c16.833-4.104,47.396-14.094,53.708-33.542
	c11.083-5.948,33.167-22.583,33.167-60.688c0-3.927-2.167-7.531-5.625-9.396c-3.479-1.854-7.646-1.656-10.938,0.5
	c-0.563,0.375-57.729,37.604-133.75,40.594l0.004,0.096c-0.221,0.017-0.427-0.076-0.65-0.044
	c-5.854,0.719-10.021,6.042-9.292,11.885c0.167,1.438,0.25,2.885,0.25,4.365C181.333,399.25,164.583,416,144,416
	s-37.333-16.75-37.333-37.333c0-20.583,16.75-37.333,37.333-37.333c5.896,0,10.667-4.771,10.667-10.667
	c0-4.035-2.323-7.419-5.624-9.23c0.035-0.5,0.29-5.612,0.29-6.77C149.333,281.219,133.292,256,112,256
	c-10.503,0-19.759,6.228-26.423,16.582c-0.081-1.97-0.243-3.799-0.243-5.915c0-7.371,3.186-14.947,8.549-22.332
	c10.824-1.629,30.72,2.018,37.242,8.54c2.083,2.083,4.813,3.125,7.542,3.125s5.458-1.042,7.542-3.125
	c4.167-4.167,4.167-10.917,0-15.083c-7.236-7.236-19.195-11.691-31.16-13.757C140.444,205.699,178.276,192,213.333,192
	c18.664,0,36.177,0.051,54.22,2.156c-25.234-2.507-38.049,7.978-48.012,19c-1.063,1.167-2.063,2.292-3.083,3.302
	c-4.167,4.167-4.167,10.917,0,15.083c2.083,2.083,4.813,3.125,7.542,3.125c2.729,0,5.458-1.042,7.542-3.125
	c1.25-1.25,2.5-2.635,3.813-4.083c8.729-9.625,18.583-20.542,59.354-4.219c5.438,2.188,11.667-0.479,13.854-5.948
	s-0.458-11.677-5.938-13.865c-11.564-4.62-21.302-7.233-29.867-8.607c30.135,4.194,62.225,14.737,104.023,41.247
	c-8.805,29.431-23.378,57.302-23.531,57.609c-1.417,2.677-1.646,5.823-0.604,8.667c1.042,2.833,3.25,5.104,6.063,6.229
	l53.333,21.333c3.271,1.333,7.021,0.906,9.938-1.073c2.938-1.99,4.688-5.292,4.688-8.833c0-16.031,3.125-53.333,32-53.333
	c25.313,0,32,27.906,32,42.667C490.667,326.74,472.417,362.667,416,362.667z"/>
<path style="opacity:0.1;enable-background:new    ;" d="M458.667,266.667c-3.355,0-6.289,0.604-8.984,1.52
	c6.635,9.366,8.984,22.023,8.984,30.48c0,17.406-18.25,53.333-74.667,53.333c-4.583,0-8.667,2.938-10.125,7.292
	C344.563,447.229,266.396,480,224,480c-11.427,0-32.862-0.844-54.949-5.742c30.561,14.526,69.884,16.409,86.949,16.409
	c42.396,0,120.563-32.771,149.875-120.708c1.458-4.354,5.542-7.292,10.125-7.292c56.417,0,74.667-35.927,74.667-53.333
	C490.667,294.573,483.979,266.667,458.667,266.667z"/>
<path style="opacity:0.2;fill:#FFFFFF;enable-background:new    ;" d="M154.486,414.315c-20.5-0.102-37.152-16.793-37.152-37.315
	c0-17.102,11.629-31.402,27.346-35.803c-0.237,0.016-0.439,0.137-0.68,0.137c-20.583,0-37.333,16.75-37.333,37.333
	C106.667,399.25,123.417,416,144,416C147.665,416,151.137,415.305,154.486,414.315z"/>
<path style="fill:#6D4C41;" d="M202.24,382.892c50.336-3.882,91.441-20.52,114.385-32.079
	c-6.604,17.583-20.646,22.823-21.333,23.073C290.938,375.333,288,379.406,288,384c0,6.323-22.167,16.99-44.771,21.542
	c-4.979,1-8.563,5.375-8.563,10.458c0,5.167-7.479,10.667-21.333,10.667c-6.47,0-15.85-2.93-26.633-8.029
	C195.609,409.125,201.236,396.674,202.24,382.892z"/>
<path style="fill:#303C42;" d="M256,224c-23.521,0-42.667,23.927-42.667,53.333s19.146,53.333,42.667,53.333
	c17.219,0,32.008-12.885,38.742-31.293c0.025-0.065,0.089-0.109,0.112-0.176c0.022-0.063,0.026-0.13,0.048-0.193
	c1.365-3.81,2.368-7.84,2.987-12.057c0.018-0.124,0.073-0.241,0.09-0.365c0.018-0.135-0.043-0.268-0.029-0.404
	c0.391-2.893,0.716-5.818,0.716-8.846C298.667,247.927,279.521,224,256,224z"/>
<path style="fill:#FFFFFF;" d="M234.667,277.333c0-17.344,9.771-32,21.333-32c9.135,0,17.069,9.201,20.033,21.596
	C264.9,267.641,256,276.701,256,288c0,7.415,4.031,13.642,9.792,17.466c-2.964,2.382-6.27,3.867-9.792,3.867
	C244.438,309.333,234.667,294.677,234.667,277.333z"/>
<path style="fill:#29B6F6;" d="M276.033,266.93c-0.883-3.693-1.991-6.897-3.656-9.863c-1.349-0.423-2.987-1.067-4.409-1.067
	c-11.563,0-21.333,14.656-21.333,32c0,7.85,2.072,15.063,5.335,20.702c1.311,0.395,2.656,0.632,4.031,0.632
	c3.522,0,6.828-1.486,9.792-3.867C260.031,301.642,256,295.415,256,288C256,276.701,264.9,267.641,276.033,266.93z"/>
<linearGradient id="SVGID_1_" gradientUnits="userSpaceOnUse" x1="-45.52" y1="638.9675" x2="-23.8905" y2="628.8823" gradientTransform="matrix(21.3333 0 0 -21.3333 996.3334 13791.667)">
	<stop  offset="0" style="stop-color:#FFFFFF;stop-opacity:0.2"/>
	<stop  offset="1" style="stop-color:#FFFFFF;stop-opacity:0"/>
</linearGradient>
<path style="fill:url(#SVGID_1_);" d="M512,213.333c0-16.656-14.479-50.708-68.708-62.969c-2.896-3.646-5.875-7.479-8.979-11.448
	C391.125,83.604,325.854,0,213.333,0C92.211,0,65.279,65.26,64.115,163.836C28.352,175.513,0,194.802,0,224
	c0,37.135,37.807,50.195,64.488,52.796c2.121,32.044,14.188,50.189,31.368,68.493c-6.599,9.488-10.523,20.967-10.523,33.378
	c0,18.359,8.646,34.57,21.887,45.335C112.93,488.661,187.013,512,256,512c47.167,0,132.958-34.969,167.625-128.188
	c66.563-3.385,88.375-50.99,88.375-74.479c0-17.34-5.633-34.605-16.26-46.897C511.957,245.37,512,221.818,512,213.333z"/>
<g>
</g>
<g>
</g>
<g>
</g>
<g>
</g>
<g>
</g>
<g>
</g>
<g>
</g>
<g>
</g>
<g>
</g>
<g>
</g>
<g>
</g>
<g>
</g>
<g>
</g>
<g>
</g>
<g>
</g>
</svg>
